<svg id="svg" version="1.1" width="400" height="400" viewBox="0 0 400 400" xmlns="http://www.w3.org/2000/svg" xmlns:xlink="http://www.w3.org/1999/xlink" ><g id="svgg"><path id="path0" d="M174.971 45.200 C 174.971 50.150,175.028 52.175,175.099 49.700 C 175.169 47.225,175.169 43.175,175.099 40.700 C 175.028 38.225,174.971 40.250,174.971 45.200 M180.518 103.898 C 182.233 103.973,184.933 103.972,186.518 103.897 C 188.103 103.821,186.700 103.759,183.400 103.760 C 180.100 103.761,178.803 103.822,180.518 103.898 M173.400 104.400 C 172.311 104.677,172.293 104.707,173.200 104.725 C 173.750 104.735,174.560 104.589,175.000 104.400 C 175.986 103.976,175.066 103.976,173.400 104.400 M191.800 104.381 C 192.568 104.729,194.710 104.956,194.367 104.653 C 194.275 104.572,193.480 104.396,192.600 104.262 C 191.485 104.093,191.242 104.129,191.800 104.381 M170.000 105.200 C 169.196 105.457,169.157 105.523,169.800 105.532 C 170.240 105.538,170.960 105.389,171.400 105.200 C 172.419 104.762,171.368 104.762,170.000 105.200 M195.400 105.200 C 195.840 105.389,196.470 105.544,196.800 105.544 C 197.178 105.544,197.104 105.417,196.600 105.200 C 196.160 105.011,195.530 104.856,195.200 104.856 C 194.822 104.856,194.896 104.983,195.400 105.200 M205.699 108.978 C 206.303 109.293,207.023 109.668,207.299 109.810 C 207.574 109.953,207.350 109.698,206.800 109.244 C 206.250 108.789,205.530 108.415,205.200 108.411 C 204.870 108.408,205.094 108.663,205.699 108.978 M208.400 110.420 C 209.787 111.361,210.578 111.635,209.600 110.836 C 209.050 110.386,208.420 110.017,208.200 110.015 C 207.980 110.013,208.070 110.196,208.400 110.420 M213.400 113.669 C 215.523 115.418,221.512 121.391,223.158 123.400 C 224.355 124.861,224.390 124.879,223.561 123.600 C 222.377 121.773,215.000 114.403,213.200 113.248 C 211.900 112.414,211.914 112.444,213.400 113.669 M149.868 116.246 C 149.025 117.029,148.407 117.740,148.494 117.827 C 148.581 117.914,149.352 117.269,150.207 116.393 C 152.134 114.419,151.929 114.330,149.868 116.246 M145.625 120.569 L 144.250 122.200 145.805 120.713 C 146.660 119.896,147.279 119.162,147.180 119.083 C 147.081 119.003,146.381 119.672,145.625 120.569 M143.544 123.100 C 142.393 124.489,141.906 125.200,142.104 125.200 C 142.214 125.200,142.786 124.570,143.373 123.800 C 144.463 122.371,144.595 121.832,143.544 123.100 M140.653 127.191 C 140.074 128.067,139.600 128.917,139.600 129.080 C 139.600 129.244,139.842 129.023,140.139 128.589 C 141.441 126.681,142.078 125.600,141.899 125.600 C 141.793 125.600,141.232 126.316,140.653 127.191 M225.549 127.000 C 225.765 127.440,226.234 128.160,226.593 128.600 L 227.244 129.400 226.851 128.600 C 226.635 128.160,226.166 127.440,225.807 127.000 L 225.156 126.200 225.549 127.000 M228.996 133.500 C 229.151 133.885,229.647 135.149,230.097 136.308 C 230.548 137.468,230.989 138.344,231.076 138.257 C 231.274 138.059,229.191 132.800,228.915 132.800 C 228.805 132.800,228.841 133.115,228.996 133.500 M231.256 139.600 C 231.256 139.930,231.411 140.560,231.600 141.000 C 231.817 141.504,231.944 141.578,231.944 141.200 C 231.944 140.870,231.789 140.240,231.600 139.800 C 231.383 139.296,231.256 139.222,231.256 139.600 M134.629 141.429 C 134.481 142.015,134.438 142.572,134.532 142.666 C 134.627 142.760,134.824 142.358,134.971 141.771 C 135.119 141.185,135.162 140.628,135.068 140.534 C 134.973 140.440,134.776 140.842,134.629 141.429 M232.080 142.600 C 232.080 143.040,232.224 143.850,232.400 144.400 C 232.654 145.192,232.720 145.233,232.720 144.600 C 232.720 144.160,232.576 143.350,232.400 142.800 C 232.146 142.008,232.080 141.967,232.080 142.600 M133.800 145.200 C 133.646 146.110,133.604 146.938,133.707 147.040 C 133.810 147.143,134.013 146.477,134.160 145.560 C 134.307 144.643,134.348 143.815,134.253 143.720 C 134.158 143.624,133.954 144.290,133.800 145.200 M160.066 145.551 C 159.754 145.749,160.418 145.816,161.666 145.713 C 164.597 145.471,164.995 145.268,162.600 145.238 C 161.500 145.224,160.360 145.365,160.066 145.551 M203.305 145.487 C 203.914 145.579,204.814 145.577,205.305 145.482 C 205.797 145.387,205.300 145.311,204.200 145.314 C 203.100 145.317,202.697 145.395,203.305 145.487 M156.967 147.383 C 156.105 148.144,155.625 148.774,155.900 148.783 C 156.175 148.793,156.400 148.626,156.400 148.414 C 156.400 148.202,157.072 147.572,157.893 147.014 C 158.714 146.456,159.194 146.000,158.959 146.000 C 158.725 146.000,157.828 146.623,156.967 147.383 M199.095 146.849 C 197.783 147.829,195.986 150.756,196.034 151.835 C 196.058 152.367,196.169 152.266,196.398 151.506 C 196.945 149.690,198.351 147.710,199.714 146.837 C 200.421 146.384,200.820 146.016,200.600 146.019 C 200.380 146.023,199.703 146.396,199.095 146.849 M208.456 146.766 C 208.975 147.187,209.477 147.455,209.571 147.361 C 209.776 147.157,208.344 146.031,207.856 146.013 C 207.666 146.006,207.936 146.345,208.456 146.766 M232.901 147.800 C 232.905 148.680,232.987 148.993,233.083 148.495 C 233.179 147.998,233.175 147.278,233.075 146.895 C 232.975 146.513,232.896 146.920,232.901 147.800 M133.351 153.600 C 133.351 156.130,133.416 157.165,133.496 155.900 C 133.575 154.635,133.575 152.565,133.496 151.300 C 133.416 150.035,133.351 151.070,133.351 153.600 M233.348 153.600 C 233.348 155.910,233.414 156.855,233.495 155.700 C 233.576 154.545,233.576 152.655,233.495 151.500 C 233.414 150.345,233.348 151.290,233.348 153.600 M154.252 151.700 C 153.937 152.877,153.982 154.811,154.346 155.735 C 154.507 156.145,154.635 155.215,154.635 153.635 C 154.635 150.524,154.606 150.378,154.252 151.700 M196.018 155.422 C 195.993 156.551,198.141 159.841,199.273 160.407 C 200.145 160.844,200.139 160.815,199.171 159.936 C 197.724 158.620,197.187 157.829,196.572 156.104 C 196.235 155.160,196.029 154.906,196.018 155.422 M232.901 159.400 C 232.905 160.280,232.987 160.593,233.083 160.095 C 233.179 159.598,233.175 158.878,233.075 158.495 C 232.975 158.113,232.896 158.520,232.901 159.400 M155.816 158.826 C 156.199 159.445,159.246 161.600,159.738 161.600 C 159.968 161.600,159.311 161.064,158.278 160.409 C 157.245 159.754,156.400 159.034,156.400 158.809 C 156.400 158.584,156.209 158.400,155.976 158.400 C 155.743 158.400,155.671 158.592,155.816 158.826 M133.687 160.800 C 133.683 161.350,133.824 162.250,134.000 162.800 C 134.431 164.144,134.431 162.692,134.000 161.000 C 133.726 159.922,133.694 159.902,133.687 160.800 M161.705 161.887 C 162.314 161.979,163.214 161.977,163.705 161.882 C 164.197 161.787,163.700 161.711,162.600 161.714 C 161.500 161.717,161.097 161.795,161.705 161.887 M203.305 161.887 C 203.914 161.979,204.814 161.977,205.305 161.882 C 205.797 161.787,205.300 161.711,204.200 161.714 C 203.100 161.717,202.697 161.795,203.305 161.887 M232.256 162.884 C 232.121 163.388,232.027 164.160,232.046 164.600 C 232.065 165.040,232.245 164.698,232.446 163.840 C 232.836 162.178,232.670 161.340,232.256 162.884 M134.456 164.800 C 134.456 165.130,134.611 165.760,134.800 166.200 C 135.017 166.704,135.144 166.778,135.144 166.400 C 135.144 166.070,134.989 165.440,134.800 165.000 C 134.583 164.496,134.456 164.422,134.456 164.800 M231.429 166.629 C 231.281 167.215,231.238 167.772,231.332 167.866 C 231.427 167.960,231.624 167.558,231.771 166.971 C 231.919 166.385,231.962 165.828,231.868 165.734 C 231.773 165.640,231.576 166.042,231.429 166.629 M229.795 171.698 C 229.172 173.294,228.324 175.206,227.911 175.947 C 227.498 176.688,227.236 177.369,227.327 177.460 C 227.418 177.552,227.955 176.676,228.520 175.513 C 229.860 172.755,231.270 169.136,231.079 168.946 C 230.996 168.863,230.418 170.101,229.795 171.698 M137.600 174.149 C 137.600 174.581,139.189 177.600,139.416 177.600 C 139.526 177.600,139.230 176.835,138.759 175.900 C 137.832 174.061,137.600 173.711,137.600 174.149 M139.600 178.129 C 139.600 178.558,143.496 184.288,143.999 184.599 C 144.226 184.739,143.565 183.627,142.531 182.127 C 141.498 180.627,140.415 179.045,140.126 178.611 C 139.837 178.177,139.600 177.960,139.600 178.129 M226.553 178.500 C 225.176 180.836,225.086 181.035,225.787 180.200 C 226.600 179.232,227.300 178.000,227.038 178.000 C 226.933 178.000,226.715 178.225,226.553 178.500 M222.975 183.868 C 222.359 184.676,222.059 185.211,222.309 185.056 C 222.821 184.740,224.553 182.400,224.275 182.400 C 224.176 182.400,223.591 183.061,222.975 183.868 M145.207 186.177 C 146.886 188.165,148.000 189.252,148.000 188.901 C 148.000 188.717,147.148 187.764,146.107 186.783 C 145.065 185.802,144.660 185.529,145.207 186.177 M218.786 188.613 L 216.600 190.826 216.400 201.313 L 216.200 211.800 183.138 211.800 C 164.954 211.800,150.160 211.935,150.262 212.100 C 150.566 212.593,216.309 212.470,216.614 211.977 C 216.758 211.744,216.851 206.969,216.820 201.366 L 216.764 191.178 219.043 188.789 C 221.911 185.782,221.716 185.648,218.786 188.613 M7.600 242.376 C 7.600 243.023,7.420 243.664,7.200 243.800 C 6.980 243.936,6.800 244.566,6.800 245.200 C 6.800 245.834,6.620 246.464,6.400 246.600 C 6.180 246.736,6.000 247.546,6.000 248.400 C 6.000 249.254,5.820 250.064,5.600 250.200 C 5.380 250.336,5.200 251.056,5.200 251.800 C 5.200 252.544,5.040 253.252,4.844 253.373 C 4.508 253.580,4.386 254.073,3.768 257.700 C 3.627 258.525,3.389 259.200,3.238 259.200 C 3.087 259.200,2.918 259.875,2.863 260.699 C 2.807 261.524,2.590 262.370,2.381 262.579 C 2.171 262.789,2.000 263.554,2.000 264.280 C 2.000 265.006,1.820 265.600,1.600 265.600 C 1.380 265.600,1.200 266.284,1.200 267.120 C 1.200 267.956,1.010 268.830,0.777 269.063 C -0.170 270.010,0.107 275.787,1.106 275.929 C 1.604 275.999,1.909 276.224,1.782 276.429 C 1.582 276.753,2.423 276.986,3.300 276.847 C 3.465 276.821,3.600 276.980,3.600 277.200 C 3.600 277.420,3.960 277.600,4.400 277.600 C 4.840 277.600,5.200 277.780,5.200 278.000 C 5.200 278.220,5.560 278.400,6.000 278.400 C 6.440 278.400,6.800 278.580,6.800 278.800 C 6.800 279.020,7.160 279.200,7.600 279.200 C 8.040 279.200,8.400 279.380,8.400 279.600 C 8.400 279.820,8.760 280.000,9.200 280.000 C 9.640 280.000,10.000 280.180,10.000 280.400 C 10.000 280.620,10.360 280.800,10.800 280.800 C 11.240 280.800,11.600 280.936,11.600 281.102 C 11.600 281.269,12.185 281.661,12.900 281.975 C 18.408 284.393,18.685 284.598,18.447 286.100 C 18.421 286.265,18.580 286.400,18.800 286.400 C 19.020 286.400,19.200 287.030,19.200 287.800 C 19.200 288.570,19.362 289.200,19.560 289.200 C 19.758 289.200,20.022 289.965,20.147 290.900 C 20.694 294.989,20.906 296.018,21.242 296.226 C 21.439 296.348,21.606 296.842,21.613 297.324 C 21.627 298.335,22.478 299.600,23.144 299.600 C 23.395 299.600,23.600 299.780,23.600 300.000 C 23.600 300.220,23.870 300.400,24.200 300.400 C 24.530 300.400,24.800 300.580,24.800 300.800 C 24.800 301.020,25.070 301.200,25.400 301.200 C 25.730 301.200,26.000 301.380,26.000 301.600 C 26.000 301.820,26.188 302.000,26.418 302.000 C 26.648 302.000,27.273 302.437,27.807 302.971 C 28.341 303.505,29.331 304.268,30.006 304.667 C 31.616 305.618,31.649 305.806,31.786 315.063 C 31.903 322.986,32.379 328.596,33.023 329.637 C 33.210 329.941,33.313 330.776,33.251 331.494 C 33.188 332.230,33.327 332.800,33.569 332.800 C 33.806 332.800,34.000 333.329,34.000 333.976 C 34.000 334.623,34.180 335.264,34.400 335.400 C 34.620 335.536,34.800 336.076,34.800 336.600 C 34.800 337.124,34.980 337.664,35.200 337.800 C 35.420 337.936,35.600 338.468,35.600 338.983 C 35.600 339.498,36.140 340.945,36.800 342.200 C 37.460 343.455,38.000 344.733,38.000 345.041 C 38.000 345.348,38.135 345.601,38.300 345.603 C 38.637 345.607,39.600 347.525,39.600 348.191 C 39.600 348.429,39.950 348.876,40.379 349.185 C 40.807 349.493,41.073 349.881,40.971 350.047 C 40.869 350.213,41.238 350.802,41.792 351.356 C 42.347 351.910,42.802 352.507,42.805 352.682 C 42.808 352.857,43.483 353.747,44.305 354.660 C 45.127 355.573,46.070 356.676,46.400 357.112 C 46.730 357.548,47.756 358.534,48.681 359.305 C 49.605 360.075,50.250 360.816,50.114 360.952 C 49.978 361.089,50.078 361.200,50.337 361.200 C 50.596 361.200,51.372 361.740,52.063 362.400 C 52.754 363.060,53.547 363.600,53.826 363.600 C 54.105 363.600,54.393 363.742,54.467 363.916 C 54.649 364.350,58.349 366.800,58.820 366.800 C 59.029 366.800,59.200 367.001,59.200 367.247 C 59.200 367.496,59.553 367.601,60.000 367.484 C 60.520 367.348,60.800 367.472,60.800 367.837 C 60.800 368.147,61.160 368.400,61.600 368.400 C 62.040 368.400,62.400 368.580,62.400 368.800 C 62.400 369.020,62.670 369.200,63.000 369.200 C 63.330 369.200,63.600 369.380,63.600 369.600 C 63.600 369.820,63.902 370.000,64.272 370.000 C 65.189 370.000,67.740 370.913,68.059 371.355 C 68.202 371.553,68.685 371.619,69.133 371.502 C 69.595 371.381,70.032 371.507,70.141 371.791 C 70.247 372.068,70.754 372.268,71.267 372.235 C 71.780 372.203,72.295 372.308,72.411 372.468 C 72.527 372.628,73.247 372.834,74.011 372.925 C 74.775 373.016,75.910 373.297,76.534 373.548 C 77.157 373.800,77.852 373.891,78.078 373.752 C 78.304 373.612,78.611 373.695,78.760 373.935 C 78.909 374.176,80.149 374.421,81.515 374.479 C 82.882 374.536,84.000 374.722,84.000 374.892 C 84.000 375.061,122.070 375.200,168.600 375.200 C 221.856 375.200,253.200 375.059,253.200 374.819 C 253.200 374.610,254.203 374.465,255.429 374.497 C 256.737 374.531,257.774 374.365,257.941 374.095 C 258.113 373.817,259.070 373.677,260.354 373.743 C 261.785 373.815,262.546 373.685,262.676 373.345 C 262.793 373.041,263.419 372.882,264.246 372.948 C 265.003 373.007,265.803 372.837,266.025 372.569 C 266.248 372.302,266.756 372.168,267.155 372.272 C 267.554 372.377,268.176 372.167,268.537 371.806 C 268.898 371.444,269.341 371.240,269.521 371.351 C 269.958 371.621,273.254 370.798,273.961 370.241 C 274.270 369.999,274.855 369.856,275.261 369.925 C 275.668 369.994,276.000 369.859,276.000 369.625 C 276.000 369.391,276.439 369.200,276.976 369.200 C 277.513 369.200,278.064 369.020,278.200 368.800 C 278.336 368.580,278.797 368.400,279.224 368.400 C 279.651 368.400,280.000 368.220,280.000 368.000 C 280.000 367.780,280.450 367.600,281.000 367.600 C 281.550 367.600,282.000 367.420,282.000 367.200 C 282.000 366.980,282.245 366.800,282.544 366.800 C 283.201 366.800,288.145 364.324,288.333 363.900 C 288.407 363.735,288.812 363.600,289.233 363.600 C 289.655 363.600,290.000 363.442,290.000 363.249 C 290.000 363.055,290.540 362.673,291.200 362.400 C 291.860 362.127,292.400 361.745,292.400 361.551 C 292.400 361.358,292.636 361.200,292.925 361.200 C 293.213 361.200,293.836 360.840,294.308 360.400 C 294.780 359.960,295.309 359.593,295.483 359.584 C 295.657 359.575,296.423 359.035,297.185 358.384 C 297.947 357.733,298.713 357.200,298.889 357.200 C 299.064 357.200,299.769 356.664,300.455 356.008 C 301.141 355.352,301.887 354.930,302.113 355.070 C 302.349 355.216,302.402 355.127,302.238 354.862 C 302.081 354.608,302.125 354.400,302.336 354.400 C 302.879 354.400,312.000 345.357,312.000 344.818 C 312.000 344.574,312.630 343.743,313.400 342.973 C 314.170 342.203,314.800 341.408,314.800 341.205 C 314.800 341.002,315.250 340.386,315.800 339.836 C 316.350 339.286,316.800 338.726,316.800 338.590 C 316.800 338.455,317.340 337.559,318.000 336.600 C 318.660 335.641,319.200 334.663,319.200 334.428 C 319.200 334.193,319.391 334.000,319.624 334.000 C 319.857 334.000,319.936 333.820,319.800 333.600 C 319.664 333.380,319.833 333.200,320.176 333.200 C 320.533 333.200,320.800 332.858,320.800 332.400 C 320.800 331.960,320.974 331.600,321.187 331.600 C 321.401 331.600,321.473 331.335,321.349 331.010 C 321.224 330.686,321.411 330.131,321.765 329.778 C 322.118 329.425,322.305 328.970,322.180 328.768 C 322.055 328.565,322.098 328.399,322.276 328.397 C 322.654 328.393,323.600 326.480,323.600 325.720 C 323.600 325.434,323.780 325.200,324.000 325.200 C 324.220 325.200,324.400 324.851,324.400 324.424 C 324.400 323.997,324.580 323.536,324.800 323.400 C 325.020 323.264,325.200 322.713,325.200 322.176 C 325.200 321.639,325.380 321.200,325.600 321.200 C 325.820 321.200,326.000 320.930,326.000 320.600 C 326.000 320.270,326.180 320.000,326.400 320.000 C 326.620 320.000,326.800 319.471,326.800 318.824 C 326.800 318.177,326.980 317.536,327.200 317.400 C 327.420 317.264,327.600 316.724,327.600 316.200 C 327.600 315.676,327.780 315.136,328.000 315.000 C 328.220 314.864,328.400 314.234,328.400 313.600 C 328.400 312.966,328.580 312.336,328.800 312.200 C 329.020 312.064,329.200 311.423,329.200 310.776 C 329.200 310.129,329.380 309.600,329.600 309.600 C 329.820 309.600,330.000 308.880,330.000 308.000 C 330.000 307.120,330.180 306.400,330.400 306.400 C 330.620 306.400,330.800 305.691,330.800 304.824 C 330.800 303.957,330.980 303.136,331.200 303.000 C 331.420 302.864,331.600 301.964,331.600 301.000 C 331.600 300.036,331.792 299.128,332.028 298.983 C 332.265 298.836,332.407 297.816,332.347 296.686 C 332.278 295.375,332.410 294.597,332.720 294.493 C 333.039 294.387,333.200 293.281,333.200 291.190 C 333.200 289.411,333.384 287.934,333.623 287.786 C 333.908 287.610,333.968 285.541,333.808 281.462 C 333.676 278.128,333.596 271.961,333.629 267.759 C 333.693 259.636,333.481 257.600,332.568 257.600 C 332.256 257.600,332.000 257.780,332.000 258.000 C 332.000 258.220,331.370 258.400,330.600 258.400 C 329.830 258.400,329.200 258.580,329.200 258.800 C 329.200 259.020,328.469 259.200,327.576 259.200 C 326.596 259.200,326.051 259.358,326.200 259.600 C 326.346 259.837,325.893 260.000,325.090 260.000 C 324.344 260.000,323.614 260.120,323.467 260.266 C 323.321 260.412,322.722 260.583,322.137 260.646 C 321.552 260.708,320.950 260.958,320.800 261.201 C 320.650 261.444,320.363 261.606,320.163 261.562 C 319.964 261.518,318.990 261.636,318.000 261.824 C 317.010 262.012,316.065 262.128,315.900 262.083 C 315.735 262.037,315.600 262.180,315.600 262.400 C 315.600 262.620,315.148 262.800,314.595 262.800 C 314.042 262.800,313.277 262.958,312.895 263.151 C 311.767 263.720,309.404 264.400,308.552 264.400 C 308.116 264.400,307.576 264.584,307.350 264.810 C 307.125 265.035,306.279 265.244,305.470 265.274 C 304.662 265.305,304.000 265.480,304.000 265.665 C 304.000 265.849,303.496 266.000,302.880 266.000 C 302.264 266.000,301.586 266.174,301.373 266.387 C 301.161 266.599,300.405 266.817,299.693 266.872 C 298.982 266.926,298.400 267.112,298.400 267.285 C 298.400 267.458,297.860 267.600,297.200 267.600 C 296.540 267.600,296.000 267.780,296.000 268.000 C 296.000 268.220,295.460 268.400,294.800 268.400 C 294.140 268.400,293.600 268.580,293.600 268.800 C 293.600 269.020,292.981 269.200,292.224 269.200 C 291.467 269.200,290.736 269.380,290.600 269.600 C 290.464 269.820,289.823 270.000,289.176 270.000 C 288.529 270.000,288.000 270.180,288.000 270.400 C 288.000 270.620,287.280 270.800,286.400 270.800 C 285.520 270.800,284.800 270.980,284.800 271.200 C 284.800 271.420,284.170 271.600,283.400 271.600 C 282.630 271.600,282.000 271.780,282.000 272.000 C 282.000 272.220,281.561 272.400,281.024 272.400 C 280.487 272.400,279.948 272.560,279.827 272.756 C 279.620 273.092,279.127 273.214,275.500 273.832 C 274.675 273.973,274.000 274.248,274.000 274.444 C 274.000 274.640,273.471 274.800,272.824 274.800 C 272.177 274.800,271.536 274.980,271.400 275.200 C 271.264 275.420,270.533 275.600,269.776 275.600 C 269.019 275.600,268.400 275.780,268.400 276.000 C 268.400 276.220,267.971 276.400,267.447 276.400 C 266.924 276.400,265.979 276.918,265.347 277.550 C 263.812 279.089,259.689 282.400,259.306 282.401 C 259.138 282.401,258.370 282.941,257.600 283.600 C 256.830 284.259,255.919 284.799,255.575 284.799 C 255.232 284.800,254.564 285.160,254.092 285.600 C 253.620 286.040,252.956 286.400,252.617 286.400 C 252.278 286.400,252.000 286.580,252.000 286.800 C 252.000 287.020,251.735 287.200,251.412 287.200 C 251.089 287.200,250.183 287.560,249.400 288.000 C 248.617 288.440,247.611 288.800,247.164 288.800 C 246.718 288.800,246.464 288.980,246.600 289.200 C 246.736 289.420,246.487 289.600,246.047 289.600 C 245.607 289.600,245.136 289.780,245.000 290.000 C 244.864 290.220,244.313 290.400,243.776 290.400 C 243.239 290.400,242.800 290.580,242.800 290.800 C 242.800 291.020,242.260 291.200,241.600 291.200 C 240.940 291.200,240.400 291.380,240.400 291.600 C 240.400 291.820,239.860 292.000,239.200 292.000 C 238.540 292.000,238.000 292.180,238.000 292.400 C 238.000 292.620,237.280 292.800,236.400 292.800 C 235.520 292.800,234.800 292.980,234.800 293.200 C 234.800 293.420,234.380 293.600,233.867 293.600 C 233.353 293.600,232.804 293.729,232.646 293.888 C 232.487 294.046,231.872 294.204,231.279 294.240 C 230.686 294.275,229.210 294.525,228.000 294.796 C 223.058 295.901,219.418 296.529,214.367 297.148 C 212.919 297.325,211.557 297.579,211.342 297.712 C 211.126 297.846,209.116 297.999,206.875 298.052 C 204.634 298.106,202.800 298.296,202.800 298.475 C 202.800 298.654,200.505 298.806,197.700 298.813 C 193.851 298.822,192.410 298.969,191.824 299.413 C 190.699 300.263,175.933 300.276,175.084 299.427 C 174.690 299.033,173.212 298.792,170.355 298.658 C 164.173 298.367,160.340 298.001,159.040 297.578 C 158.402 297.370,157.018 297.200,155.964 297.200 C 154.910 297.200,153.951 297.044,153.832 296.852 C 153.714 296.661,152.735 296.485,151.657 296.461 C 150.578 296.436,149.212 296.233,148.622 296.008 C 148.031 295.784,147.030 295.600,146.398 295.600 C 145.765 295.600,145.133 295.415,144.993 295.189 C 144.854 294.964,144.528 294.814,144.270 294.856 C 143.841 294.927,141.807 294.584,139.800 294.103 C 139.360 293.997,138.413 293.821,137.696 293.711 C 136.979 293.601,136.294 293.351,136.173 293.156 C 136.052 292.960,135.344 292.800,134.600 292.800 C 133.856 292.800,133.136 292.620,133.000 292.400 C 132.864 292.180,132.313 292.000,131.776 292.000 C 131.239 292.000,130.800 291.820,130.800 291.600 C 130.800 291.380,130.260 291.200,129.600 291.200 C 128.940 291.200,128.400 291.020,128.400 290.800 C 128.400 290.580,127.860 290.400,127.200 290.400 C 126.540 290.400,126.000 290.220,126.000 290.000 C 126.000 289.780,125.460 289.600,124.800 289.600 C 124.140 289.600,123.600 289.420,123.600 289.200 C 123.600 288.980,123.240 288.800,122.800 288.800 C 122.360 288.800,122.000 288.620,122.000 288.400 C 122.000 288.180,121.460 288.000,120.800 288.000 C 120.140 288.000,119.600 287.820,119.600 287.600 C 119.600 287.380,119.330 287.200,119.000 287.200 C 118.670 287.200,118.400 287.020,118.400 286.800 C 118.400 286.580,117.860 286.400,117.200 286.400 C 116.540 286.400,116.000 286.220,116.000 286.000 C 116.000 285.780,115.640 285.600,115.200 285.600 C 114.760 285.600,114.400 285.420,114.400 285.200 C 114.400 284.980,114.040 284.800,113.600 284.800 C 113.160 284.800,112.800 284.620,112.800 284.400 C 112.800 284.180,112.566 284.000,112.280 284.000 C 111.544 284.000,109.607 283.059,109.603 282.700 C 109.601 282.535,109.240 282.400,108.800 282.400 C 108.360 282.400,108.000 282.220,108.000 282.000 C 108.000 281.780,107.830 281.600,107.621 281.600 C 107.235 281.600,102.362 278.855,102.000 278.433 C 101.622 277.993,100.010 277.200,99.494 277.200 C 99.209 277.200,98.717 276.840,98.400 276.400 C 98.083 275.960,97.543 275.600,97.200 275.600 C 96.857 275.600,96.317 275.240,96.000 274.800 C 95.683 274.360,95.228 274.000,94.990 274.000 C 94.751 274.000,93.896 273.415,93.088 272.700 C 92.281 271.985,90.509 270.410,89.152 269.200 C 86.686 267.003,84.997 266.088,83.300 266.030 C 82.805 266.014,82.400 265.820,82.400 265.600 C 82.400 265.380,82.038 265.200,81.595 265.200 C 81.152 265.200,80.477 265.041,80.095 264.847 C 78.187 263.876,73.565 262.400,72.434 262.400 C 72.063 262.400,71.589 262.234,71.380 262.032 C 70.820 261.489,66.374 260.000,65.314 260.000 C 64.811 260.000,64.400 259.820,64.400 259.600 C 64.400 259.380,63.871 259.200,63.224 259.200 C 62.577 259.200,61.936 259.020,61.800 258.800 C 61.664 258.580,61.113 258.400,60.576 258.400 C 60.039 258.400,59.600 258.220,59.600 258.000 C 59.600 257.780,59.060 257.600,58.400 257.600 C 57.740 257.600,57.200 257.420,57.200 257.200 C 57.200 256.980,56.660 256.800,56.000 256.800 C 55.340 256.800,54.800 256.620,54.800 256.400 C 54.800 256.180,54.350 256.000,53.800 256.000 C 53.250 256.000,52.800 255.820,52.800 255.600 C 52.800 255.380,52.260 255.200,51.600 255.200 C 50.940 255.200,50.400 255.020,50.400 254.800 C 50.400 254.580,49.871 254.400,49.224 254.400 C 48.577 254.400,47.936 254.220,47.800 254.000 C 47.664 253.780,47.124 253.600,46.600 253.600 C 46.076 253.600,45.536 253.420,45.400 253.200 C 45.264 252.980,44.713 252.800,44.176 252.800 C 43.639 252.800,43.200 252.620,43.200 252.400 C 43.200 252.180,42.671 252.000,42.024 252.000 C 41.377 252.000,40.736 251.820,40.600 251.600 C 40.464 251.380,39.913 251.200,39.376 251.200 C 38.839 251.200,38.400 251.020,38.400 250.800 C 38.400 250.580,37.860 250.400,37.200 250.400 C 36.540 250.400,36.000 250.220,36.000 250.000 C 36.000 249.780,35.685 249.597,35.300 249.594 C 34.482 249.587,31.739 248.673,31.341 248.274 C 31.190 248.123,30.644 248.000,30.128 248.000 C 29.612 248.000,28.877 247.841,28.495 247.647 C 27.183 246.979,25.796 246.479,23.400 245.808 C 22.080 245.438,20.460 244.928,19.800 244.674 C 19.140 244.420,18.389 244.259,18.130 244.317 C 17.872 244.374,17.546 244.236,17.407 244.011 C 17.267 243.785,16.724 243.600,16.200 243.600 C 15.676 243.600,15.136 243.420,15.000 243.200 C 14.864 242.980,14.324 242.800,13.800 242.800 C 13.276 242.800,12.736 242.620,12.600 242.400 C 12.464 242.180,11.913 242.000,11.376 242.000 C 10.839 242.000,10.400 241.820,10.400 241.600 C 10.400 241.380,9.770 241.200,9.000 241.200 C 7.717 241.200,7.600 241.299,7.600 242.376 M128.800 317.341 C 133.414 319.697,134.924 325.180,132.141 329.472 C 128.357 335.309,120.257 334.615,117.240 328.196 C 113.931 321.155,121.798 313.767,128.800 317.341 M162.731 317.707 C 170.715 322.990,165.671 335.424,156.443 333.210 C 149.840 331.626,147.599 322.683,152.751 318.485 C 155.632 316.138,159.862 315.808,162.731 317.707 M194.440 316.864 C 200.581 318.959,202.084 327.126,197.113 331.382 C 191.949 335.802,184.019 332.619,183.320 325.847 C 182.675 319.595,188.545 314.853,194.440 316.864 M228.800 317.341 C 234.772 320.390,235.149 328.461,229.491 332.130 C 221.501 337.310,212.251 326.520,218.566 319.386 C 221.197 316.414,225.356 315.583,228.800 317.341 " stroke="none" fill="#af525a" fill-rule="evenodd"></path><path id="path1" d="M174.800 104.380 C 174.250 104.554,172.810 104.916,171.600 105.185 C 158.918 108.001,147.513 116.485,140.267 128.493 C 139.240 130.194,138.400 131.681,138.400 131.798 C 138.400 131.914,138.055 132.772,137.633 133.704 C 129.620 151.431,133.536 173.602,147.200 187.866 L 149.800 190.581 150.000 201.190 L 150.200 211.800 183.200 211.800 L 216.200 211.800 216.400 201.348 L 216.600 190.897 219.609 187.748 C 225.120 181.981,229.936 173.339,231.561 166.300 C 231.803 165.255,232.225 163.545,232.500 162.500 C 235.078 152.702,231.715 136.544,224.932 126.146 C 220.680 119.626,208.488 108.800,205.398 108.800 C 205.300 108.800,204.041 108.260,202.600 107.600 C 201.159 106.940,199.797 106.400,199.574 106.400 C 199.350 106.400,198.050 106.065,196.684 105.655 C 195.318 105.244,193.342 104.704,192.294 104.455 C 190.147 103.942,176.367 103.884,174.800 104.380 M165.667 145.982 C 169.363 147.649,170.601 149.563,170.597 153.600 C 170.586 162.668,158.799 165.291,154.974 157.076 C 151.740 150.129,158.746 142.860,165.667 145.982 M206.898 145.677 C 213.718 147.720,214.323 158.023,207.801 161.060 C 202.031 163.747,196.000 159.935,196.000 153.600 C 196.000 147.643,201.095 143.938,206.898 145.677 " stroke="none" fill="#e2e9ea" fill-rule="evenodd"></path><path id="path2" d="M57.600 75.000 C 57.600 75.550,57.780 76.000,58.000 76.000 C 58.220 76.000,58.400 76.540,58.400 77.200 C 58.400 77.860,58.580 78.400,58.800 78.400 C 59.020 78.400,59.200 78.940,59.200 79.600 C 59.200 80.260,59.359 80.800,59.554 80.800 C 59.749 80.800,60.035 81.819,60.191 83.064 C 60.346 84.310,60.620 85.615,60.798 85.964 C 60.976 86.314,61.338 87.410,61.603 88.400 C 61.867 89.390,62.245 90.613,62.442 91.119 C 62.639 91.624,62.800 92.479,62.800 93.019 C 62.800 93.558,62.980 94.000,63.200 94.000 C 63.420 94.000,63.600 94.619,63.600 95.376 C 63.600 96.133,63.780 96.864,64.000 97.000 C 64.220 97.136,64.400 97.766,64.400 98.400 C 64.400 99.034,64.580 99.664,64.800 99.800 C 65.020 99.936,65.200 100.656,65.200 101.400 C 65.200 102.144,65.380 102.864,65.600 103.000 C 65.820 103.136,66.000 103.856,66.000 104.600 C 66.000 105.344,66.180 106.064,66.400 106.200 C 66.620 106.336,66.800 107.056,66.800 107.800 C 66.800 108.544,66.980 109.264,67.200 109.400 C 67.420 109.536,67.600 110.357,67.600 111.224 C 67.600 112.091,67.780 112.800,68.000 112.800 C 68.220 112.800,68.400 113.520,68.400 114.400 C 68.400 115.280,68.580 116.000,68.800 116.000 C 69.020 116.000,69.200 116.799,69.200 117.776 C 69.200 118.753,69.380 119.664,69.600 119.800 C 69.820 119.936,70.000 120.847,70.000 121.824 C 70.000 122.801,70.180 123.600,70.400 123.600 C 70.620 123.600,70.800 124.500,70.800 125.600 C 70.800 126.700,70.980 127.600,71.200 127.600 C 71.420 127.600,71.600 128.500,71.600 129.600 C 71.600 130.700,71.780 131.600,72.000 131.600 C 72.220 131.600,72.400 132.590,72.400 133.800 C 72.400 135.010,72.580 136.000,72.800 136.000 C 73.020 136.000,73.200 136.990,73.200 138.200 C 73.200 139.410,73.380 140.400,73.600 140.400 C 73.820 140.400,74.000 141.390,74.000 142.600 C 74.000 143.810,74.180 144.800,74.400 144.800 C 74.629 144.800,74.800 146.000,74.800 147.600 C 74.800 149.200,74.971 150.400,75.200 150.400 C 75.429 150.400,75.600 151.600,75.600 153.200 C 75.600 154.800,75.771 156.000,76.000 156.000 C 76.231 156.000,76.400 157.256,76.400 158.967 C 76.400 160.598,76.560 161.993,76.755 162.067 C 76.950 162.140,77.316 165.440,77.569 169.400 C 77.822 173.360,78.209 178.850,78.429 181.600 C 80.061 201.981,79.736 244.402,77.913 248.800 C 77.777 249.130,77.551 251.539,77.413 254.154 L 77.161 258.908 79.677 258.623 C 81.060 258.467,82.374 258.194,82.596 258.017 C 82.818 257.840,83.630 257.596,84.400 257.476 C 85.170 257.356,86.610 257.050,87.600 256.796 C 88.590 256.543,90.120 256.241,91.000 256.126 C 91.880 256.012,92.771 255.756,92.980 255.559 C 93.189 255.362,94.044 255.200,94.880 255.200 C 95.716 255.200,96.400 255.020,96.400 254.800 C 96.400 254.580,97.199 254.400,98.176 254.400 C 99.153 254.400,100.064 254.220,100.200 254.000 C 100.336 253.780,101.236 253.600,102.200 253.600 C 103.164 253.600,104.064 253.420,104.200 253.200 C 104.336 252.980,105.236 252.800,106.200 252.800 C 107.164 252.800,108.064 252.620,108.200 252.400 C 108.336 252.180,109.427 252.000,110.624 252.000 C 111.821 252.000,112.800 251.820,112.800 251.600 C 112.800 251.380,113.689 251.200,114.776 251.200 C 115.863 251.200,116.864 251.020,117.000 250.800 C 117.136 250.580,118.126 250.400,119.200 250.400 C 120.274 250.400,121.264 250.220,121.400 250.000 C 121.536 249.780,122.807 249.600,124.224 249.600 C 125.675 249.600,126.800 249.425,126.800 249.200 C 126.800 248.975,127.925 248.800,129.376 248.800 C 130.793 248.800,132.064 248.620,132.200 248.400 C 132.336 248.180,133.607 248.000,135.024 248.000 C 136.475 248.000,137.600 247.825,137.600 247.600 C 137.600 247.372,138.792 247.200,140.376 247.200 C 141.903 247.200,143.264 247.020,143.400 246.800 C 143.536 246.580,145.167 246.400,147.024 246.400 C 149.008 246.400,150.400 246.235,150.400 246.000 C 150.400 245.760,152.000 245.600,154.400 245.600 C 156.800 245.600,158.400 245.440,158.400 245.200 C 158.400 244.957,160.200 244.800,163.000 244.800 C 165.800 244.800,167.600 244.643,167.600 244.400 C 167.600 244.164,169.040 244.000,171.120 244.000 C 173.403 244.000,174.816 243.824,175.140 243.500 C 175.796 242.844,204.906 242.919,205.126 243.578 C 205.218 243.853,207.698 244.000,212.233 244.000 C 216.611 244.000,219.200 244.149,219.200 244.400 C 219.200 244.640,220.800 244.800,223.200 244.800 C 225.600 244.800,227.200 244.960,227.200 245.200 C 227.200 245.435,228.600 245.600,230.600 245.600 C 232.600 245.600,234.000 245.765,234.000 246.000 C 234.000 246.222,235.067 246.400,236.400 246.400 C 237.733 246.400,238.800 246.578,238.800 246.800 C 238.800 247.020,239.779 247.200,240.976 247.200 C 242.173 247.200,243.264 247.380,243.400 247.600 C 243.536 247.820,244.346 248.000,245.200 248.000 C 246.054 248.000,246.864 248.180,247.000 248.400 C 247.136 248.620,248.036 248.800,249.000 248.800 C 249.964 248.800,250.864 248.980,251.000 249.200 C 251.136 249.420,251.856 249.600,252.600 249.600 C 253.344 249.600,254.064 249.780,254.200 250.000 C 254.336 250.220,255.157 250.400,256.024 250.400 C 256.891 250.400,257.600 250.580,257.600 250.800 C 257.600 251.020,258.140 251.200,258.800 251.200 C 259.460 251.200,260.000 251.380,260.000 251.600 C 260.000 251.820,260.630 252.000,261.400 252.000 C 262.170 252.000,262.800 252.180,262.800 252.400 C 262.800 252.620,263.340 252.800,264.000 252.800 C 264.660 252.800,265.200 252.980,265.200 253.200 C 265.200 253.420,265.740 253.600,266.400 253.600 C 267.060 253.600,267.600 253.780,267.600 254.000 C 267.600 254.220,268.140 254.400,268.800 254.400 C 269.460 254.400,270.000 254.580,270.000 254.800 C 270.000 255.020,270.439 255.200,270.976 255.200 C 271.513 255.200,272.042 255.344,272.151 255.521 C 272.260 255.697,273.261 256.090,274.375 256.393 C 275.489 256.696,276.400 257.092,276.400 257.272 C 276.400 257.453,276.649 257.600,276.954 257.600 C 277.259 257.600,278.024 257.869,278.654 258.198 C 280.551 259.187,282.400 259.002,282.400 257.824 C 282.400 257.287,282.580 256.736,282.800 256.600 C 283.020 256.464,283.200 255.913,283.200 255.376 C 283.200 254.839,283.380 254.400,283.600 254.400 C 283.820 254.400,284.000 253.860,284.000 253.200 C 284.000 252.540,284.180 252.000,284.400 252.000 C 284.620 252.000,284.800 251.460,284.800 250.800 C 284.800 250.140,284.960 249.600,285.156 249.600 C 285.352 249.600,285.627 248.925,285.768 248.100 C 286.385 244.475,286.505 244.000,286.800 244.000 C 286.972 244.000,287.227 243.325,287.368 242.500 C 287.986 238.873,288.108 238.380,288.444 238.173 C 288.640 238.052,288.800 237.344,288.800 236.600 C 288.800 235.856,288.980 235.136,289.200 235.000 C 289.420 234.864,289.600 234.144,289.600 233.400 C 289.600 232.656,289.780 231.936,290.000 231.800 C 290.220 231.664,290.400 230.854,290.400 230.000 C 290.400 229.146,290.567 228.344,290.770 228.218 C 290.974 228.092,291.267 226.372,291.422 224.395 C 291.577 222.418,291.860 220.800,292.052 220.800 C 292.243 220.800,292.400 219.911,292.400 218.824 C 292.400 217.737,292.580 216.736,292.800 216.600 C 293.020 216.464,293.200 215.193,293.200 213.776 C 293.200 212.325,293.375 211.200,293.600 211.200 C 293.825 211.200,294.000 210.075,294.000 208.624 C 294.000 207.207,294.180 205.936,294.400 205.800 C 294.620 205.664,294.800 204.033,294.800 202.176 C 294.800 200.192,294.965 198.800,295.200 198.800 C 295.445 198.800,295.600 196.875,295.600 193.824 C 295.600 190.937,295.768 188.743,296.000 188.600 C 296.252 188.444,296.400 183.870,296.400 176.200 C 296.400 168.530,296.252 163.956,296.000 163.800 C 295.771 163.658,295.600 161.596,295.600 158.976 C 295.600 156.192,295.443 154.400,295.200 154.400 C 294.967 154.400,294.800 153.067,294.800 151.200 C 294.800 149.440,294.636 148.000,294.436 148.000 C 294.235 148.000,293.969 146.965,293.844 145.700 C 293.262 139.826,293.102 138.800,292.763 138.800 C 292.563 138.800,292.400 138.001,292.400 137.024 C 292.400 136.047,292.244 135.151,292.053 135.032 C 291.861 134.914,291.581 133.558,291.429 132.018 C 291.278 130.478,290.984 129.114,290.777 128.986 C 290.570 128.858,290.400 128.234,290.400 127.600 C 290.400 126.966,290.220 126.336,290.000 126.200 C 289.780 126.064,289.600 125.434,289.600 124.800 C 289.600 124.166,289.420 123.536,289.200 123.400 C 288.980 123.264,288.800 122.724,288.800 122.200 C 288.800 121.676,288.620 121.136,288.400 121.000 C 288.180 120.864,288.000 120.324,288.000 119.800 C 288.000 119.276,287.820 118.736,287.600 118.600 C 287.380 118.464,287.200 117.924,287.200 117.400 C 287.200 116.876,287.020 116.336,286.800 116.200 C 286.580 116.064,286.400 115.603,286.400 115.176 C 286.400 114.749,286.220 114.400,286.000 114.400 C 285.780 114.400,285.600 114.038,285.600 113.595 C 285.600 113.152,285.420 112.432,285.200 111.995 C 284.980 111.558,284.620 110.842,284.400 110.405 C 284.180 109.968,284.000 109.338,284.000 109.005 C 284.000 108.672,283.820 108.400,283.600 108.400 C 283.380 108.400,283.200 108.040,283.200 107.600 C 283.200 107.160,283.020 106.800,282.800 106.800 C 282.580 106.800,282.400 106.440,282.400 106.000 C 282.400 105.560,282.220 105.200,282.000 105.200 C 281.780 105.200,281.600 104.851,281.600 104.424 C 281.600 103.997,281.420 103.536,281.200 103.400 C 280.980 103.264,280.800 102.803,280.800 102.376 C 280.800 101.949,280.654 101.600,280.475 101.600 C 280.296 101.600,279.902 100.970,279.600 100.200 C 279.298 99.430,278.904 98.800,278.725 98.800 C 278.546 98.800,278.400 98.440,278.400 98.000 C 278.400 97.560,278.220 97.200,278.000 97.200 C 277.780 97.200,277.600 96.840,277.600 96.400 C 277.600 95.960,277.454 95.600,277.275 95.600 C 277.096 95.600,276.702 94.970,276.400 94.200 C 276.098 93.430,275.739 92.800,275.602 92.800 C 275.466 92.800,275.036 92.080,274.648 91.200 C 274.260 90.320,273.775 89.600,273.571 89.600 C 273.367 89.600,273.200 89.240,273.200 88.800 C 273.200 88.360,273.050 88.000,272.868 88.000 C 272.685 88.000,272.280 87.505,271.968 86.900 C 271.655 86.295,271.085 85.451,270.700 85.025 C 270.315 84.598,270.000 84.053,270.000 83.813 C 270.000 83.573,269.640 83.117,269.200 82.800 C 268.760 82.483,268.400 82.036,268.400 81.807 C 268.400 81.356,266.489 79.064,263.526 75.962 L 261.652 74.000 227.050 74.000 C 204.413 74.000,192.362 74.138,192.200 74.400 C 192.048 74.647,188.663 74.800,183.376 74.800 C 177.925 74.800,174.800 74.654,174.800 74.400 C 174.800 74.135,155.000 74.000,116.200 74.000 L 57.600 74.000 57.600 75.000 M191.071 104.034 C 195.235 104.613,202.648 106.989,206.155 108.870 C 233.177 123.367,241.770 156.810,224.864 181.684 C 222.835 184.669,222.606 184.946,218.910 188.889 L 216.764 191.178 216.820 201.431 C 216.851 207.074,216.715 211.845,216.516 212.044 C 216.306 212.254,202.389 212.362,183.178 212.302 L 150.200 212.200 150.093 201.614 L 149.986 191.028 148.088 189.214 C 141.146 182.582,136.691 174.263,133.944 162.800 C 133.234 159.839,133.234 147.361,133.944 144.400 C 140.631 116.498,163.656 100.228,191.071 104.034 M159.330 146.184 C 151.595 149.548,153.878 161.592,162.251 161.599 C 170.994 161.605,173.855 150.397,166.116 146.457 C 164.169 145.466,161.250 145.349,159.330 146.184 M200.363 146.531 C 193.120 150.356,195.963 161.600,204.173 161.600 C 211.314 161.600,215.008 153.090,210.042 148.081 C 207.411 145.427,203.607 144.818,200.363 146.531 M122.255 317.363 C 113.857 320.481,116.045 332.800,124.997 332.800 C 135.211 332.800,135.908 317.983,125.741 316.981 C 124.574 316.866,123.184 317.018,122.255 317.363 M155.400 317.372 C 151.744 318.709,149.441 323.217,150.543 326.879 C 153.296 336.022,166.400 334.295,166.400 324.789 C 166.400 319.372,160.609 315.468,155.400 317.372 M189.402 317.072 C 184.916 318.335,182.268 324.243,184.363 328.316 C 187.855 335.103,197.231 334.212,199.592 326.868 C 201.351 321.399,195.163 315.450,189.402 317.072 M222.255 317.363 C 213.870 320.476,216.059 332.800,224.997 332.800 C 235.211 332.800,235.908 317.983,225.741 316.981 C 224.574 316.866,223.184 317.018,222.255 317.363 " stroke="none" fill="#454d55" fill-rule="evenodd"></path><path id="path3" d="M118.369 28.027 C 118.056 28.226,116.711 28.391,115.380 28.394 C 114.049 28.397,112.789 28.563,112.580 28.763 C 112.371 28.963,111.300 29.223,110.200 29.342 C 106.984 29.688,105.208 30.063,104.973 30.444 C 104.852 30.640,104.133 30.800,103.376 30.800 C 102.619 30.800,102.000 30.980,102.000 31.200 C 102.000 31.420,101.460 31.600,100.800 31.600 C 100.140 31.600,99.600 31.780,99.600 32.000 C 99.600 32.220,99.060 32.400,98.400 32.400 C 97.740 32.400,97.200 32.580,97.200 32.800 C 97.200 33.020,96.840 33.200,96.400 33.200 C 95.960 33.200,95.600 33.380,95.600 33.600 C 95.600 33.820,95.374 34.000,95.097 34.000 C 94.244 34.000,92.000 36.763,92.000 37.813 C 92.000 38.356,91.820 38.800,91.600 38.800 C 91.369 38.800,91.200 40.067,91.200 41.800 C 91.200 43.533,91.369 44.800,91.600 44.800 C 91.820 44.800,92.000 45.160,92.000 45.600 C 92.000 46.040,92.180 46.400,92.400 46.400 C 92.620 46.400,92.800 46.694,92.800 47.053 C 92.800 47.789,94.111 49.054,95.248 49.415 C 95.661 49.546,96.000 49.822,96.000 50.027 C 96.000 50.233,97.802 50.400,100.024 50.400 C 102.604 50.400,103.959 50.257,103.800 50.000 C 103.656 49.767,104.055 49.600,104.753 49.600 C 105.413 49.600,106.064 49.420,106.200 49.200 C 106.336 48.980,106.977 48.800,107.624 48.800 C 108.271 48.800,108.800 48.620,108.800 48.400 C 108.800 48.180,109.520 48.000,110.400 48.000 C 111.280 48.000,112.000 47.820,112.000 47.600 C 112.000 47.380,112.889 47.200,113.976 47.200 C 115.063 47.200,116.064 47.020,116.200 46.800 C 116.336 46.580,117.776 46.400,119.400 46.400 C 121.024 46.400,122.464 46.220,122.600 46.000 C 122.736 45.780,124.187 45.600,125.824 45.600 C 127.541 45.600,128.800 45.769,128.800 46.000 C 128.800 46.231,130.067 46.400,131.800 46.400 C 133.533 46.400,134.800 46.569,134.800 46.800 C 134.800 47.020,135.520 47.200,136.400 47.200 C 137.280 47.200,138.000 47.380,138.000 47.600 C 138.000 47.820,138.540 48.000,139.200 48.000 C 139.860 48.000,140.400 48.180,140.400 48.400 C 140.400 48.620,140.760 48.800,141.200 48.800 C 141.640 48.800,142.000 48.980,142.000 49.200 C 142.000 49.420,142.360 49.600,142.800 49.600 C 143.240 49.600,143.600 49.780,143.600 50.000 C 143.600 50.220,143.949 50.400,144.376 50.400 C 144.803 50.400,145.264 50.580,145.400 50.800 C 145.536 51.020,145.997 51.200,146.424 51.200 C 146.851 51.200,147.200 51.380,147.200 51.600 C 147.200 51.820,147.549 52.000,147.976 52.000 C 148.403 52.000,148.864 52.180,149.000 52.400 C 149.136 52.620,149.672 52.800,150.190 52.800 C 150.709 52.800,151.193 52.972,151.267 53.182 C 151.340 53.393,152.075 53.610,152.900 53.664 C 153.725 53.719,154.400 53.907,154.400 54.082 C 154.400 54.257,155.019 54.400,155.776 54.400 C 156.533 54.400,157.264 54.580,157.400 54.800 C 157.536 55.020,158.796 55.200,160.200 55.200 C 161.604 55.200,162.864 55.380,163.000 55.600 C 163.314 56.108,169.311 56.128,169.820 55.623 C 170.029 55.416,171.190 55.191,172.400 55.123 L 174.600 55.000 174.707 45.300 C 174.778 38.917,174.675 35.600,174.407 35.600 C 174.183 35.600,174.000 35.780,174.000 36.000 C 174.000 36.220,173.640 36.400,173.200 36.400 C 172.760 36.400,172.400 36.580,172.400 36.800 C 172.400 37.048,170.267 37.200,166.800 37.200 C 163.333 37.200,161.200 37.048,161.200 36.800 C 161.200 36.580,160.581 36.400,159.824 36.400 C 159.067 36.400,158.336 36.220,158.200 36.000 C 158.064 35.780,157.513 35.600,156.976 35.600 C 156.439 35.600,156.000 35.420,156.000 35.200 C 156.000 34.980,155.550 34.800,155.000 34.800 C 154.450 34.800,154.000 34.620,154.000 34.400 C 154.000 34.180,153.651 34.000,153.224 34.000 C 152.797 34.000,152.336 33.820,152.200 33.600 C 152.064 33.380,151.603 33.200,151.176 33.200 C 150.749 33.200,150.400 33.020,150.400 32.800 C 150.400 32.580,150.040 32.400,149.600 32.400 C 149.160 32.400,148.800 32.253,148.800 32.072 C 148.800 31.892,147.889 31.496,146.775 31.193 C 145.661 30.890,144.660 30.497,144.551 30.321 C 144.442 30.144,143.733 30.000,142.976 30.000 C 142.219 30.000,141.600 29.839,141.600 29.642 C 141.600 29.245,139.536 28.866,135.600 28.541 C 134.170 28.423,132.794 28.156,132.542 27.949 C 131.962 27.471,119.136 27.542,118.369 28.027 " stroke="none" fill="#fc245c" fill-rule="evenodd"></path><path id="path4" d="M179.200 25.200 C 179.200 25.420,179.014 25.600,178.787 25.600 C 178.249 25.600,175.600 28.249,175.600 28.787 C 175.600 29.014,175.428 29.200,175.217 29.200 C 174.976 29.200,174.925 33.697,175.079 41.324 C 175.221 48.336,175.172 53.721,174.962 54.094 C 174.763 54.450,174.651 59.258,174.713 64.778 L 174.827 74.816 183.513 74.708 L 192.200 74.600 192.304 53.024 C 192.371 38.909,192.267 31.307,192.004 31.044 C 191.782 30.822,191.600 30.205,191.600 29.673 C 191.600 28.635,188.732 25.600,187.751 25.600 C 187.448 25.600,187.200 25.420,187.200 25.200 C 187.200 24.960,185.600 24.800,183.200 24.800 C 180.800 24.800,179.200 24.960,179.200 25.200 M388.000 241.654 C 388.000 241.844,387.460 242.000,386.800 242.000 C 386.140 242.000,385.600 242.180,385.600 242.400 C 385.600 242.620,384.880 242.800,384.000 242.800 C 383.120 242.800,382.400 242.946,382.400 243.124 C 382.400 243.409,380.307 243.919,376.100 244.659 C 375.385 244.785,374.800 245.011,374.800 245.161 C 374.800 245.312,373.675 245.678,372.300 245.975 C 370.925 246.272,369.620 246.647,369.400 246.807 C 369.023 247.083,367.929 247.339,364.896 247.863 C 364.179 247.987,363.494 248.249,363.373 248.444 C 363.252 248.640,362.623 248.800,361.976 248.800 C 361.329 248.800,360.800 248.980,360.800 249.200 C 360.800 249.420,360.348 249.600,359.795 249.600 C 359.242 249.600,358.477 249.758,358.095 249.951 C 356.928 250.540,354.592 251.200,353.672 251.200 C 353.192 251.200,352.800 251.380,352.800 251.600 C 352.800 251.820,352.408 252.000,351.928 252.000 C 351.008 252.000,348.672 252.660,347.505 253.249 C 347.123 253.442,346.268 253.600,345.605 253.600 C 344.942 253.600,344.400 253.780,344.400 254.000 C 344.400 254.220,343.860 254.400,343.200 254.400 C 342.540 254.400,342.000 254.580,342.000 254.800 C 342.000 255.020,341.381 255.200,340.624 255.200 C 339.867 255.200,339.136 255.380,339.000 255.600 C 338.864 255.820,338.223 256.000,337.576 256.000 C 336.929 256.000,336.400 256.180,336.400 256.400 C 336.400 256.620,335.871 256.800,335.224 256.800 C 334.577 256.800,333.940 256.974,333.809 257.186 C 333.594 257.533,333.454 274.406,333.652 276.100 C 333.760 277.030,334.424 276.995,334.672 276.046 C 334.810 275.519,335.374 275.213,336.535 275.033 C 338.000 274.806,341.150 273.970,345.028 272.778 C 345.704 272.570,346.649 272.400,347.128 272.400 C 347.608 272.400,348.000 272.220,348.000 272.000 C 348.000 271.780,348.392 271.600,348.872 271.600 C 349.792 271.600,352.128 270.940,353.295 270.351 C 353.677 270.158,354.532 270.000,355.195 270.000 C 355.858 270.000,356.400 269.820,356.400 269.600 C 356.400 269.380,356.839 269.200,357.376 269.200 C 357.913 269.200,358.464 269.020,358.600 268.800 C 358.736 268.580,359.467 268.400,360.224 268.400 C 360.981 268.400,361.600 268.220,361.600 268.000 C 361.600 267.780,362.129 267.600,362.776 267.600 C 363.423 267.600,364.064 267.420,364.200 267.200 C 364.336 266.980,365.067 266.800,365.824 266.800 C 366.581 266.800,367.200 266.620,367.200 266.400 C 367.200 266.180,367.729 266.000,368.376 266.000 C 369.023 266.000,369.664 265.820,369.800 265.600 C 369.936 265.380,370.566 265.200,371.200 265.200 C 371.834 265.200,372.464 265.020,372.600 264.800 C 372.736 264.580,373.377 264.400,374.024 264.400 C 374.671 264.400,375.200 264.220,375.200 264.000 C 375.200 263.780,375.729 263.600,376.376 263.600 C 377.023 263.600,377.664 263.420,377.800 263.200 C 377.936 262.980,378.667 262.800,379.424 262.800 C 380.181 262.800,380.800 262.640,380.800 262.444 C 380.800 262.248,381.430 261.978,382.200 261.844 C 382.970 261.710,384.230 261.490,385.000 261.356 C 385.770 261.222,386.400 260.952,386.400 260.756 C 386.400 260.560,386.940 260.400,387.600 260.400 C 388.260 260.400,388.800 260.220,388.800 260.000 C 388.800 259.780,389.415 259.600,390.167 259.600 C 390.918 259.600,391.593 259.442,391.667 259.249 C 391.740 259.056,392.700 258.792,393.800 258.663 C 395.270 258.490,396.038 258.153,396.700 257.391 C 397.195 256.822,397.600 256.499,397.600 256.674 C 397.600 256.849,398.095 256.458,398.700 255.806 C 401.331 252.971,400.043 242.800,397.053 242.800 C 396.694 242.800,396.400 242.620,396.400 242.400 C 396.400 242.180,396.040 242.000,395.600 242.000 C 395.160 242.000,394.800 241.811,394.800 241.579 C 394.800 241.312,393.558 241.186,391.400 241.234 C 389.530 241.275,388.000 241.464,388.000 241.654 M178.800 243.177 L 175.000 243.400 174.897 271.375 C 174.816 293.490,174.900 299.416,175.297 299.669 C 176.052 300.148,190.715 300.074,191.626 299.586 C 192.718 299.002,192.857 243.461,191.767 243.043 C 191.058 242.771,184.563 242.838,178.800 243.177 M330.800 258.000 C 330.800 258.220,331.070 258.400,331.400 258.400 C 331.730 258.400,332.000 258.220,332.000 258.000 C 332.000 257.780,331.730 257.600,331.400 257.600 C 331.070 257.600,330.800 257.780,330.800 258.000 M327.800 258.800 C 327.664 259.020,327.923 259.200,328.376 259.200 C 328.829 259.200,329.200 259.020,329.200 258.800 C 329.200 258.580,328.941 258.400,328.624 258.400 C 328.307 258.400,327.936 258.580,327.800 258.800 M320.184 260.827 C 319.835 261.391,320.362 261.902,320.722 261.348 C 320.875 261.113,321.270 260.817,321.600 260.692 C 322.008 260.536,321.920 260.453,321.324 260.432 C 320.842 260.414,320.329 260.592,320.184 260.827 M317.200 261.600 C 316.413 262.109,317.816 262.109,319.000 261.600 C 319.733 261.285,319.716 261.254,318.800 261.234 C 318.250 261.222,317.530 261.387,317.200 261.600 M309.200 264.000 C 309.200 264.501,309.624 264.501,310.400 264.000 C 310.885 263.686,310.828 263.611,310.100 263.606 C 309.605 263.603,309.200 263.780,309.200 264.000 M306.200 264.800 C 306.064 265.020,306.223 265.200,306.553 265.200 C 306.883 265.200,307.264 265.020,307.400 264.800 C 307.536 264.580,307.377 264.400,307.047 264.400 C 306.717 264.400,306.336 264.580,306.200 264.800 M166.000 298.400 C 166.330 298.613,166.870 298.788,167.200 298.788 C 167.733 298.788,167.733 298.745,167.200 298.400 C 166.870 298.187,166.330 298.012,166.000 298.012 C 165.467 298.012,165.467 298.055,166.000 298.400 M121.400 317.212 C 117.788 318.973,115.137 324.591,116.731 327.102 C 116.909 327.383,117.053 326.502,117.056 325.102 C 117.068 319.931,121.266 316.197,126.183 316.983 C 136.079 318.565,134.938 332.714,124.905 332.832 C 122.572 332.859,122.355 332.920,123.325 333.273 C 127.046 334.630,132.617 330.912,133.441 326.524 C 134.693 319.850,127.460 314.257,121.400 317.212 M155.000 317.165 C 152.165 318.567,149.958 321.239,150.051 323.156 C 150.092 324.015,150.180 323.918,150.543 322.611 C 152.938 313.996,166.400 315.845,166.400 324.789 C 166.400 334.156,153.379 336.036,150.577 327.073 C 150.227 325.955,150.045 325.704,150.027 326.316 C 149.872 331.605,157.476 335.147,162.628 332.186 C 171.568 327.049,164.230 312.599,155.000 317.165 M188.600 316.956 C 185.255 318.417,183.181 321.545,183.268 325.000 L 183.318 327.000 183.572 324.800 C 184.627 315.683,196.752 313.872,199.479 322.424 C 199.760 323.303,199.932 323.511,199.957 323.000 C 200.155 318.916,192.923 315.067,188.600 316.956 M221.400 317.212 C 217.701 319.016,215.474 323.727,216.774 327.000 C 216.979 327.516,217.087 326.876,217.077 325.200 C 217.048 319.942,221.209 316.188,226.183 316.983 C 236.079 318.565,234.938 332.714,224.905 332.832 C 222.572 332.859,222.355 332.920,223.325 333.273 C 227.046 334.630,232.617 330.912,233.441 326.524 C 234.693 319.850,227.460 314.257,221.400 317.212 M31.628 323.676 C 31.613 324.268,31.780 324.864,32.000 325.000 C 32.478 325.295,32.478 324.511,32.000 323.400 C 31.693 322.686,31.653 322.715,31.628 323.676 M199.384 327.400 C 197.585 334.248,187.721 334.770,184.264 328.200 C 183.916 327.540,183.625 327.260,183.616 327.578 C 183.564 329.458,187.400 332.788,190.318 333.396 C 194.189 334.204,200.911 329.483,199.877 326.682 C 199.779 326.417,199.557 326.740,199.384 327.400 M117.200 328.206 C 117.200 329.332,121.258 333.275,121.830 332.703 C 121.947 332.587,121.412 332.102,120.641 331.625 C 119.871 331.149,118.857 330.139,118.388 329.380 C 117.596 328.098,117.200 327.707,117.200 328.206 M217.221 328.301 C 217.192 329.005,220.930 332.805,221.626 332.779 C 221.971 332.766,221.801 332.487,221.200 332.079 C 220.650 331.706,219.840 331.040,219.400 330.600 C 218.960 330.160,218.294 329.350,217.921 328.800 C 217.548 328.250,217.233 328.026,217.221 328.301 M43.964 354.688 C 44.585 355.910,49.831 361.236,50.124 360.942 C 50.255 360.812,49.605 360.075,48.681 359.305 C 47.756 358.534,46.730 357.549,46.400 357.116 C 45.028 355.312,43.514 353.804,43.964 354.688 M301.600 355.000 C 300.855 355.550,300.432 356.000,300.660 356.000 C 300.889 356.000,301.599 355.550,302.238 355.000 C 303.738 353.711,303.348 353.710,301.600 355.000 M297.600 358.014 C 296.796 358.655,296.756 358.757,297.400 358.539 C 298.662 358.110,299.888 357.198,299.189 357.209 C 298.865 357.214,298.150 357.576,297.600 358.014 M268.484 371.815 C 268.060 372.296,268.070 372.400,268.541 372.400 C 268.857 372.400,269.218 372.130,269.345 371.800 C 269.636 371.041,269.160 371.049,268.484 371.815 M72.100 372.400 C 72.191 372.738,72.771 373.028,73.431 373.063 C 74.438 373.118,74.461 373.099,73.600 372.923 C 73.050 372.811,72.451 372.512,72.270 372.260 C 72.049 371.952,71.993 371.999,72.100 372.400 M74.984 373.226 C 74.865 373.419,75.233 373.693,75.802 373.836 C 77.178 374.182,77.381 373.905,76.171 373.334 C 75.637 373.082,75.103 373.033,74.984 373.226 M257.684 374.215 C 257.260 374.696,257.269 374.800,257.735 374.800 C 258.047 374.800,258.526 374.530,258.800 374.200 C 259.484 373.376,258.412 373.391,257.684 374.215 M80.100 374.676 C 80.485 374.776,81.115 374.776,81.500 374.676 C 81.885 374.575,81.570 374.493,80.800 374.493 C 80.030 374.493,79.715 374.575,80.100 374.676 M253.200 374.800 C 253.200 375.301,253.624 375.301,254.400 374.800 C 254.885 374.486,254.828 374.411,254.100 374.406 C 253.605 374.403,253.200 374.580,253.200 374.800 " stroke="none" fill="#833c44" fill-rule="evenodd"></path></g></svg>